<svg xmlns="http://www.w3.org/2000/svg" viewBox="0 0 120 120">
  <defs>
    <radialGradient id="bg" cx="50%" cy="38%" r="72%">
      <stop offset="0%" stop-color="#5b21b6"/>
      <stop offset="65%" stop-color="#3b1577"/>
      <stop offset="100%" stop-color="#240e4d"/>
    </radialGradient>
  </defs>
  <circle cx="60" cy="60" r="56" fill="url(#bg)" stroke="#c084fc" stroke-width="2.5"/>
  <g transform="translate(60,62) scale(0.42)">
    <path fill="#0d0f17" d="M95,10 C85,-28 35,-45 -10,-38 C-18,-62 -30,-72 -34,-74 C-32,-52 -36,-42 -42,-36 C-70,-28 -88,-10 -95,2 C-86,4 -78,4 -70,2 C-50,26 0,38 50,30 C75,25 92,18 95,10 Z"/>
    <ellipse transform="translate(48,-12) rotate(-12.6)" rx="17" ry="8" fill="#eef0f8"/>
    <path fill="#eef0f8" d="M88,16 C60,30 0,36 -40,26 C0,44 60,38 88,16 Z"/>
    <circle cx="52" cy="-12" r="4" fill="#10121c"/>
  </g>
</svg>
